<?xml version="1.0" encoding="UTF-8"?><svg id="Layer_2" xmlns="http://www.w3.org/2000/svg" viewBox="0 0 1056.31 687.32"><defs><style>.cls-1{fill-rule:evenodd;}.cls-1,.cls-2{fill:#fff;stroke-width:0px;}</style></defs><g id="Layer_1-2"><polygon class="cls-2" points="391.95 114.72 382.83 58.96 323.58 41.81 330.39 35 389.46 52.33 396.89 99.09 410.24 86.21 400.85 40.97 340.02 25.42 346.7 18.75 407.85 34.27 418.97 87.82 391.95 114.72"/><polygon class="cls-2" points="430.8 76.68 419.23 22.5 358.24 7.01 365.19 0 426.47 15.18 438.05 69.45 430.8 76.68"/><path class="cls-1" d="m518.58,498.68c-28.52-14.85-19.09,1.06-53.37,1.79l-200.33,2.65c-50.95.79-227.53-.32-264.88,5.7,23.85,4.45,224.82,5.75,264.88,6.56,38.99.79,208.53,6.27,228.42-.51,15.96-7.62,24.4,9.34,31.76,2.59,9.77-12.22,12.13-15.71,18.33-16.32,4.94.92,12.22,9.43,17.17,12.2,13.55,9.45,13.11-1.58,26.03-1.69,9.07.47,11.51,5.12,25.24,6.63l421.39-7.13c3.12-.5,20.06-1.02,22.99-2.88-11.17-2.91-158.73-4.17-176.74-4.37-35.16-.39-258.3-.98-273.12-5.37-8.42-2.49-14.48-6.96-21.94-5.59-15.51,3.27-10.93,10.3-20.17,2.06-16.82-17.45-25.93-20.82-45.67,3.68Z"/><path class="cls-2" d="m142.32,296.57c42.15,0,75.97-40.68,75.97-90.18s-33.82-90.18-75.97-90.18H.19v-45.09h143.12c71.55.49,129.38,60.77,129.38,135.27s-57.83,134.77-129.38,135.26H55.08v97.05H.19v-142.13h142.13Z"/><path class="cls-2" d="m315.67,438.69V71.12h54.38v367.58h-54.38Z"/><path class="cls-2" d="m659.84,380.58l14.04,44.43c-22.85,9.1-48,13.68-74.43,13.68-103.42,0-186.73-81.85-186.73-188.69s83.31-188.2,186.73-188.2c27.47,0,53.59,4.97,77.23,14.89l-21.51,41.42c-17.13-7.45-36.4-11.22-55.72-11.22-75.95,0-132.34,67.63-132.34,143.11,0,69.11,50.98,143.6,132.34,143.6,19.14,0,41.14-4.08,60.4-13.02Z"/><path class="cls-2" d="m774.25,250c0,69.11,50.49,143.6,131.86,143.6v45.09c-102.93,0-186.73-81.85-186.73-188.69s83.79-188.2,186.73-188.2c53.9,0,102.39,18.63,136.23,56.37l-35.79,35.77c-26.43-29.4-57.36-47.05-100.44-47.05-78.93,0-131.86,63.23-131.86,143.11Zm282.06-22.05v45.09h-131.25v-45.09h131.25Z"/><path class="cls-2" d="m19.86,597.88c5.83,0,10.51-5.63,10.51-12.48s-4.68-12.48-10.51-12.48H.19v-6.24h19.81c9.9.07,17.91,8.41,17.91,18.72s-8,18.65-17.91,18.72H7.78v13.43H.19v-19.67h19.67Z"/><path class="cls-2" d="m90.28,617.55h-7.64l-15.41-37.53-.14-.4v.03s-.02-.01-.02-.01h0s0-.01,0-.01l-.14.4-15.41,37.53h-7.64l20.89-50.87h4.64l20.9,50.87Z"/><path class="cls-2" d="m140.19,566.68v50.87h-9.09l-34.86-50.87h9.09l27.33,40.49v-40.49h7.53Zm-43.95,28.29l7.59.03v22.55h-7.59v-22.58Z"/><path class="cls-2" d="m171.97,617.55c-14.24,0-25.84-11.33-25.84-26.11s11.6-26.05,25.84-26.05,25.84,11.26,25.84,26.05-11.6,26.11-25.84,26.11Zm0-6.24c10.78,0,18.31-9.5,18.31-19.87s-7.6-19.81-18.31-19.81-18.31,9.5-18.31,19.81,7.6,19.87,18.31,19.87Z"/><path class="cls-2" d="m233.93,584.72c0-6.85-4.75-11.8-10.51-11.8h-19.67v-6.24h19.74c9.97.07,17.97,7.8,17.97,18.04,0,7.73-4.48,13.97-10.92,16.69l10.92,16.14h-8.34l-9.97-14.79h-11.87v14.79h-7.53v-21.03h19.67c5.77,0,10.51-4.88,10.51-11.8Z"/><path class="cls-2" d="m293.84,617.55h-7.64l-15.41-37.53-.14-.4v.03s-.02-.01-.02-.01h0s0-.01,0-.01l-.14.4-15.41,37.53h-7.64l20.89-50.87h4.64l20.9,50.87Z"/><path class="cls-2" d="m353.28,566.68v50.87h-7.53v-38.19l-17.08,38.19h-4.27l-24.6-50.87h9.08l17.62,38.5,16.78-38.5h10Zm-53.48,27.94l7.59.03v22.9h-7.59v-22.93Z"/><path class="cls-2" d="m405.65,617.55h-7.64l-15.41-37.53-.14-.4v.03s-.02-.01-.02-.01h0s0-.01,0-.01l-.14.4-15.41,37.53h-7.64l20.89-50.87h4.64l20.9,50.87Z"/><path class="cls-2" d="m439.28,617.55v-50.87h7.53v50.87h-7.53Z"/><path class="cls-2" d="m496.66,566.68v50.87h-9.09l-34.86-50.87h9.09l27.33,40.49v-40.49h7.53Zm-43.95,28.29l7.59.03v22.55h-7.59v-22.58Z"/><path class="cls-2" d="m538.14,592.12c0,14.04-10.92,25.37-24.41,25.43h-11.12v-6.24h10.99c4.47,0,8.75-1.9,11.93-5.49,3.25-3.66,5.09-8.48,5.09-13.7s-1.83-10.04-5.09-13.63c-3.19-3.59-7.46-5.56-11.93-5.56h-10.99v-6.24h11.12c13.5.07,24.41,11.46,24.41,25.43Z"/><path class="cls-2" d="m544.06,617.55v-50.87h7.53v50.87h-7.53Z"/><path class="cls-2" d="m603.91,617.55h-7.64l-15.41-37.53-.14-.4v.03s-.02-.01-.02-.01h0s0-.01,0-.01l-.14.4-15.41,37.53h-7.64l20.89-50.87h4.64l20.9,50.87Z"/><path class="cls-2" d="m671.75,609.51l1.94,6.15c-3.16,1.26-6.64,1.89-10.3,1.89-14.31,0-25.84-11.33-25.84-26.11s11.53-26.05,25.84-26.05c3.8,0,7.42.69,10.69,2.06l-2.98,5.73c-2.37-1.03-5.04-1.55-7.71-1.55-10.51,0-18.31,9.36-18.31,19.81,0,9.56,7.05,19.87,18.31,19.87,2.65,0,5.69-.56,8.36-1.8Z"/><path class="cls-2" d="m705.84,617.55c-14.24,0-25.84-11.33-25.84-26.11s11.6-26.05,25.84-26.05,25.84,11.26,25.84,26.05-11.6,26.11-25.84,26.11Zm0-6.24c10.79,0,18.31-9.5,18.31-19.87s-7.6-19.81-18.31-19.81-18.31,9.5-18.31,19.81,7.6,19.87,18.31,19.87Z"/><path class="cls-2" d="m781.56,566.68v50.87h-9.09l-34.86-50.87h9.09l27.33,40.49v-40.49h7.53Zm-43.95,28.29l7.59.03v22.55h-7.59v-22.58Z"/><path class="cls-2" d="m822.57,608.12c-2.44,5.76-9.28,9.35-17.81,9.43v-6.24c5.89-.07,9.34-2.24,10.76-5.63,1.08-2.51.2-5.22.14-5.29-1.42-3.93-5.36-4.82-10.92-6.51-6.31-1.9-13.57-3.46-15.94-10.11-1.29-3.46-.95-7.46.81-10.72,3.93-7.46,13.97-7.67,15.13-7.67,7.46,0,14.11,3.26,18.85,8.48l-4.95,4.95c-2.78-4.07-8.21-7.19-13.9-7.19-.07,0-6.04,0-8.34,4.34-.88,1.7-1.09,3.93-.47,5.7,1.36,3.73,5.22,4.61,10.65,6.24,6.44,1.97,13.7,3.46,16.28,10.31.2.48,1.83,5.09-.27,9.9Z"/><path class="cls-2" d="m871.42,596.93c0,8.21-3.26,20.62-20.35,20.62s-20.48-12.41-20.48-20.62v-30.93h7.53v30.93c0,3.05.68,14.38,12.95,14.38s12.82-11.33,12.82-14.38v-10.46h7.53v10.46Z"/><path class="cls-2" d="m910.51,617.55h-33.17v-50.87h7.53v44.63h25.64v6.24Z"/><path class="cls-2" d="m923.99,572.92v44.63h-7.53v-50.87h23.26v6.24h-15.74Z"/><path class="cls-2" d="m945.65,617.55v-50.87h7.53v50.87h-7.53Z"/><path class="cls-2" d="m1003.03,566.68v50.87h-9.09l-34.86-50.87h9.09l27.33,40.49v-40.49h7.53Zm-43.95,28.29l7.59.03v22.55h-7.59v-22.58Z"/><path class="cls-2" d="m1016.56,591.44c0,9.56,6.99,19.87,18.25,19.87v6.24c-14.25,0-25.84-11.33-25.84-26.11s11.6-26.05,25.84-26.05c7.46,0,14.17,2.58,18.85,7.8l-4.95,4.95c-3.66-4.07-7.94-6.51-13.9-6.51-10.92,0-18.25,8.75-18.25,19.81Zm39.03-3.05v6.24h-18.16v-6.24h18.16Z"/><path class="cls-2" d="m416.32,661.21c0,9.56,6.99,19.87,18.25,19.87v6.24c-14.25,0-25.84-11.33-25.84-26.11s11.6-26.05,25.84-26.05c7.46,0,14.17,2.58,18.85,7.8l-4.95,4.95c-3.66-4.07-7.94-6.51-13.9-6.51-10.92,0-18.25,8.75-18.25,19.81Zm39.04-3.05v6.24h-18.16v-6.24h18.16Zm-6.24,0h6.24v18.16h-6.24v-18.16Zm600.24-69.77h6.24v18.16h-6.24v-18.16Z"/><path class="cls-2" d="m491.47,654.5c0-6.85-4.75-11.8-10.51-11.8h-19.67v-6.24h19.74c9.97.07,17.97,7.8,17.97,18.04,0,7.73-4.48,13.97-10.92,16.69l10.92,16.14h-8.34l-9.97-14.79h-11.87v14.79h-7.53v-21.03h19.67c5.77,0,10.51-4.88,10.51-11.8Z"/><path class="cls-2" d="m530.8,687.32c-14.24,0-25.84-11.33-25.84-26.11s11.6-26.05,25.84-26.05,25.84,11.26,25.84,26.05-11.6,26.11-25.84,26.11Zm0-6.24c10.78,0,18.31-9.5,18.31-19.87s-7.6-19.81-18.31-19.81-18.31,9.5-18.31,19.81,7.6,19.87,18.31,19.87Z"/><path class="cls-2" d="m603.4,666.7c0,8.21-3.26,20.62-20.35,20.62s-20.48-12.41-20.48-20.62v-30.93h7.53v30.93c0,3.05.68,14.38,12.95,14.38s12.82-11.33,12.82-14.38v-10.46h7.53v10.46Z"/><path class="cls-2" d="m628.99,667.65c5.83,0,10.51-5.63,10.51-12.48s-4.68-12.48-10.51-12.48h-19.67v-6.24h19.81c9.9.07,17.91,8.41,17.91,18.72s-8,18.65-17.91,18.72h-12.21v13.43h-7.6v-19.67h19.67Z"/><rect class="cls-2" x="968.15" y="271.03" width="131.25" height="45.09" transform="translate(1327.34 -740.2) rotate(90)"/></g></svg>